<svg version="1" xmlns="http://www.w3.org/2000/svg" width="24" height="24" viewBox="0 0 24 24"><g><path d="M19.516 10.5c-.276 0-.5.224-.5.5v12h-18v-20h15.5c.276 0 .5-.224.5-.5s-.224-.5-.5-.5h-16c-.276 0-.5.224-.5.5v21c0 .276.224.5.5.5h19c.276 0 .5-.224.5-.5v-12.5c0-.276-.224-.5-.5-.5zM23.903.975c-.396-.955-1.7-1.284-2.463-.521l-9.546 9.545-.094.13-1.414 2.829c-.096.192-.059.425.094.577.096.096.224.146.354.146.076 0 .152-.017.224-.053l2.828-1.414.13-.094 9.547-9.546c.444-.444.572-1.042.34-1.599zm-10.537 10.381l-1.414.708.707-1.415 7.721-7.721.707.708-7.721 7.72zm9.489-9.488l-1.061 1.061-.707-.708 1.06-1.06c.285-.286.698-.128.832.197.076.181.034.352-.124.51z"/></g></svg>