<svg id="Layer_1" data-name="Layer 1" xmlns="http://www.w3.org/2000/svg" width="64" height="64" viewBox="0 0 64 64"><defs><style>.cls-1{fill:#666;}</style></defs><title>cog</title><path class="cls-1" d="M31,44A11,11,0,1,0,20,33,11,11,0,0,0,31,44Zm0-20a9,9,0,1,1-9,9A9,9,0,0,1,31,24Z"/><path class="cls-1" d="M7,38h3.61a21.33,21.33,0,0,0,2.47,6l-2.21,2.21a3,3,0,0,0,0,4.19l2.77,2.77a3,3,0,0,0,4.19,0L20,50.91a20.59,20.59,0,0,0,6,2.47V57a3,3,0,0,0,3,3h4a3,3,0,0,0,3-3V53.39a21.33,21.33,0,0,0,6-2.47l2.21,2.21a3,3,0,0,0,4.19,0l2.77-2.78a3,3,0,0,0,0-4.19L48.9,43.95a20.53,20.53,0,0,0,2.47-6H55a3,3,0,0,0,3-3V31a3,3,0,0,0-3-3H51.39a21.18,21.18,0,0,0-2.48-6l2.21-2.22a3,3,0,0,0,0-4.19l-2.78-2.78a3,3,0,0,0-4.19,0l-2.21,2.21A20.9,20.9,0,0,0,36,12.6V9a3,3,0,0,0-3-3H29a3,3,0,0,0-3,3v3.6a20.91,20.91,0,0,0-6,2.48l-2.21-2.21a3,3,0,0,0-4.19,0l-2.78,2.78A3,3,0,0,0,10,17.74a2.92,2.92,0,0,0,.87,2.09L13.08,22a21,21,0,0,0-2.48,6H7a3,3,0,0,0-3,3v4A3,3,0,0,0,7,38ZM6,31a1,1,0,0,1,1-1h4.41a1,1,0,0,0,1-.8,18.78,18.78,0,0,1,2.8-6.74,1,1,0,0,0-.13-1.26l-2.78-2.78a1,1,0,0,1,0-1.36l2.78-2.78a1,1,0,0,1,1.36,0l2.78,2.78a1,1,0,0,0,1.26.12,18.8,18.8,0,0,1,6.74-2.81,1,1,0,0,0,.8-1V9a1,1,0,0,1,1-1h4a1,1,0,0,1,1,1v4.4a1,1,0,0,0,.8,1,18.77,18.77,0,0,1,6.74,2.81,1,1,0,0,0,1.26-.12l2.78-2.78a1,1,0,0,1,1.36,0l2.78,2.78a1,1,0,0,1,0,1.36l-2.78,2.78a1,1,0,0,0-.13,1.26,19.17,19.17,0,0,1,2.8,6.74,1,1,0,0,0,1,.8H55a1,1,0,0,1,1,1v4a1,1,0,0,1-1,1H50.59a1,1,0,0,0-1,.8,18.63,18.63,0,0,1-2.8,6.74,1,1,0,0,0,.13,1.26l2.78,2.78a0.91,0.91,0,0,1,.28.67,1,1,0,0,1-.28.68L47,51.72a1,1,0,0,1-1.36,0l-2.78-2.78a1,1,0,0,0-1.26-.12,19,19,0,0,1-6.74,2.8,1,1,0,0,0-.8,1V57a1,1,0,0,1-1,1H29a1,1,0,0,1-1-1V52.59a1,1,0,0,0-.8-1,18.71,18.71,0,0,1-6.74-2.8,1,1,0,0,0-1.27.12l-2.78,2.78a1,1,0,0,1-1.36,0l-2.77-2.77a1,1,0,0,1,0-1.36l2.78-2.78a1,1,0,0,0,.12-1.26,19.17,19.17,0,0,1-2.8-6.74,1,1,0,0,0-1-.8H7a1,1,0,0,1-1-1V31Z"/></svg>