<?xml version="1.0" encoding="UTF-8"?>
<svg xmlns="http://www.w3.org/2000/svg" width="22.781280517578125" height="22.78126525878905" viewBox="397.8187634856209 112.6179701514014 22.781280517578125 22.78126525878905">
  <g>
    <defs>
      <path id="s-Path_1-d1224" d="M409.20939511751425 112.61797329554665 C402.96067500687064 112.61797329554665 397.818755349587 117.75988791048374 397.818755349587 124.00860189341344 C397.818755349587 130.25731587634317 402.96067500687064 135.39923049128032 409.20939511751425 135.39923049128032 C415.45811522815814 135.39923049128032 420.6000348854421 130.25731587634317 420.6000348854421 124.00860189341344 C420.6000348854421 117.75988791048374 415.45811522815814 112.61797329554665 409.20939511751425 112.61797329554665 Z M409.20939511751425 134.43735570244468 C403.48371654389695 134.4396691850274 398.77029132390084 129.7300560041749 398.7679778390496 124.00438304535871 C398.7656643541981 118.27871008654255 403.47528215346716 113.56528948869641 409.2009607270842 113.56297600611371 C414.9298275071844 113.56066123532389 419.6446929993715 118.27552228576958 419.64237800538643 124.00438344785286 C419.6331484555242 129.7242490556411 414.92926633512195 134.4281262004567 409.209395117515 134.4373553001132 Z "></path>
      <path id="s-Path_2-d1224" d="M409.20939511751425 112.61797329554665 C402.96067500687064 112.61797329554665 397.818755349587 117.75988791048374 397.818755349587 124.00860189341344 C397.818755349587 130.25731587634317 402.96067500687064 135.39923049128032 409.20939511751425 135.39923049128032 C415.45811522815814 135.39923049128032 420.6000348854421 130.25731587634317 420.6000348854421 124.00860189341344 C420.6000348854421 117.75988791048374 415.45811522815814 112.61797329554665 409.20939511751425 112.61797329554665 Z M409.20939511751425 134.43735570244468 C403.48371654389695 134.4396691850274 398.77029132390084 129.7300560041749 398.7679778390496 124.00438304535871 C398.7656643541981 118.27871008654255 403.47528215346716 113.56528948869641 409.2009607270842 113.56297600611371 C414.9298275071844 113.56066123532389 419.6446929993715 118.27552228576958 419.64237800538643 124.00438344785286 C419.6331484555242 129.7242490556411 414.92926633512195 134.4281262004567 409.209395117515 134.4373553001132 Z "></path>
      <path id="s-Circle_1-d1224" d="M402.6154802702446 124.0043834478528 C402.59930310681307 127.62169456890095 405.56259149180477 130.61160360980705 409.1799061601185 130.62778075737478 C412.81952419407224 130.64405764877745 415.81958687214694 127.64399791266942 415.8033099647826 124.0043834478528 C415.8194871282141 120.38707232680488 412.8561987432225 117.39716328589867 409.23888407490875 117.38098613833105 C405.5992660409549 117.36470924692833 402.59920336288025 120.36476898303636 402.6154802702446 124.00438344785303 "></path>
    </defs>
    <g>
      <use xmlns:xlink="http://www.w3.org/1999/xlink" xlink:href="#s-Path_1-d1224" fill="#999999" fill-opacity="1.0" filter="none"></use>
    </g>
    <g id="s-Group_2-d1224">
      <g>
        <use xmlns:xlink="http://www.w3.org/1999/xlink" xlink:href="#s-Path_2-d1224" fill="#999999" fill-opacity="1.0" filter="none"></use>
      </g>
      <g>
        <use xmlns:xlink="http://www.w3.org/1999/xlink" xlink:href="#s-Circle_1-d1224" fill="#999999" fill-opacity="1.0" filter="none"></use>
      </g>
    </g>
  </g>
</svg>
