<svg id="Layer_1" data-name="Layer 1" xmlns="http://www.w3.org/2000/svg" width="64" height="64" viewBox="0 0 64 64"><defs><style>.cls-1{fill:#666;}</style></defs><title>camera</title><path class="cls-1" d="M32,20A14,14,0,1,0,46,34,14,14,0,0,0,32,20Zm0,26A12,12,0,1,1,44,34,12,12,0,0,1,32,46Z"/><path class="cls-1" d="M32,24A10,10,0,1,0,42,34,10,10,0,0,0,32,24Zm0,18a8,8,0,1,1,8-8A8,8,0,0,1,32,42Z"/><path class="cls-1" d="M56,18H48a2,2,0,0,1-1.72-1,0.93,0.93,0,0,0,0-.1l-2.59-4.61A0.92,0.92,0,0,0,43.46,12,4,4,0,0,0,40,10H24a4,4,0,0,0-3.54,2.13l-2.69,4.78a0.47,0.47,0,0,0,0,.1A2,2,0,0,1,16,18H8a4,4,0,0,0-4,4V50a4,4,0,0,0,4,4H56a4,4,0,0,0,4-4V22A4,4,0,0,0,56,18Zm2,32a2,2,0,0,1-2,2H8a2,2,0,0,1-2-2V22a2,2,0,0,1,2-2h8a4,4,0,0,0,3.53-2.12s0,0,0-.08l2.65-4.71A2,2,0,0,1,24,12H40a2,2,0,0,1,1.79,1.11l2.63,4.68a0.59,0.59,0,0,0,0,.08A4,4,0,0,0,48,20h8a2,2,0,0,1,2,2V50Z"/></svg>