<svg id="Layer_1" data-name="Layer 1" xmlns="http://www.w3.org/2000/svg" width="64" height="64" viewBox="0 0 64 64"><defs><style>.cls-1{fill:#666;}</style></defs><title>calendar</title><path class="cls-1" d="M12,58H52a4,4,0,0,0,4-4V14a4,4,0,0,0-4-4H46V7a1,1,0,0,0-2,0v3H20V7a1,1,0,1,0-2,0v3H12a4,4,0,0,0-4,4V54A4,4,0,0,0,12,58Zm40-2H12a2,2,0,0,1-2-2V24H54V54A2,2,0,0,1,52,56ZM12,12h6v3a1,1,0,1,0,2,0V12H44v3a1,1,0,1,0,2,0V12h6a2,2,0,0,1,2,2v8H10V14A2,2,0,0,1,12,12Z"/><rect class="cls-1" x="24" y="26" width="4" height="4"/><rect class="cls-1" x="30" y="26" width="4" height="4"/><rect class="cls-1" x="36" y="26" width="4" height="4"/><rect class="cls-1" x="42" y="26" width="4" height="4"/><rect class="cls-1" x="48" y="26" width="4" height="4"/><rect class="cls-1" x="12" y="32" width="4" height="4"/><rect class="cls-1" x="18" y="32" width="4" height="4"/><rect class="cls-1" x="24" y="32" width="4" height="4"/><rect class="cls-1" x="30" y="32" width="4" height="4"/><rect class="cls-1" x="36" y="32" width="4" height="4"/><rect class="cls-1" x="42" y="32" width="4" height="4"/><rect class="cls-1" x="48" y="32" width="4" height="4"/><rect class="cls-1" x="12" y="38" width="4" height="4"/><rect class="cls-1" x="18" y="38" width="4" height="4"/><rect class="cls-1" x="24" y="38" width="4" height="4"/><rect class="cls-1" x="30" y="38" width="4" height="4"/><rect class="cls-1" x="36" y="38" width="4" height="4"/><rect class="cls-1" x="42" y="38" width="4" height="4"/><rect class="cls-1" x="48" y="38" width="4" height="4"/><rect class="cls-1" x="42" y="44" width="4" height="4"/><rect class="cls-1" x="48" y="44" width="4" height="4"/><rect class="cls-1" x="12" y="44" width="4" height="4"/><rect class="cls-1" x="18" y="44" width="4" height="4"/><rect class="cls-1" x="24" y="44" width="4" height="4"/><rect class="cls-1" x="30" y="44" width="4" height="4"/><rect class="cls-1" x="36" y="44" width="4" height="4"/><rect class="cls-1" x="12" y="50" width="4" height="4"/><rect class="cls-1" x="18" y="50" width="4" height="4"/><rect class="cls-1" x="24" y="50" width="4" height="4"/><rect class="cls-1" x="30" y="50" width="4" height="4"/></svg>