<?xml version="1.0" encoding="UTF-8"?>
<svg xmlns="http://www.w3.org/2000/svg" width="98.0" height="63.0" viewBox="512.4999999999998 318.5 98.0 63.0">
  <g>
    <defs>
      <path id="s-Rect_1-d1224" d="M543.9999999999998 320.0 L578.9999999999998 320.0 C595.4575131106457 320.0 608.9999999999998 333.5424868893541 608.9999999999998 350.0 L608.9999999999998 350.0 C608.9999999999998 366.4575131106459 595.4575131106457 380.0 578.9999999999998 380.0 L543.9999999999998 380.0 C527.5424868893539 380.0 513.9999999999998 366.4575131106459 513.9999999999998 350.0 L513.9999999999998 350.0 C513.9999999999998 333.5424868893541 527.5424868893539 320.0 543.9999999999998 320.0 Z "></path>
      <path id="s-Circle_1-d1224" d="M548.9997100724934 349.8700178067602 C548.9285629997179 365.7789471470517 561.9610884652775 378.92856300091 577.8700178055685 378.9997100736855 C593.877037221109 379.07129581971003 607.0712958185186 365.8770372222998 606.9997100724934 349.87001780675934 C607.0708571452689 333.96108846646865 594.0383316797092 320.8114726126104 578.1294023394182 320.7403255398349 C562.1223829238777 320.66873979381035 548.9281243264682 333.8629983912206 548.9997100724934 349.87001780676104 "></path>
    </defs>
    <g transform="rotate(180.0 561.4999999999998 350.0)">
      <use xmlns:xlink="http://www.w3.org/1999/xlink" xlink:href="#s-Rect_1-d1224" fill="#4CD864" fill-opacity="1.0" fill-rule="evenodd" stroke-width="2.0" stroke="#4CD864" stroke-linecap="butt" filter="none"></use>
    </g>
    <g transform="rotate(180.0 577.9997100724934 349.8700178067602)">
      <use xmlns:xlink="http://www.w3.org/1999/xlink" xlink:href="#s-Circle_1-d1224" fill="#FFFFFF" fill-opacity="1.0" fill-rule="evenodd" stroke-width="2.0" stroke="#4CD864" stroke-linecap="butt" filter="none"></use>
    </g>
  </g>
</svg>
